<?xml version="1.0" encoding="utf-8"?>
<!-- Generator: Adobe Illustrator 19.2.1, SVG Export Plug-In . SVG Version: 6.00 Build 0)  -->
<svg version="1.2" baseProfile="tiny" id="Слой_1"
	 xmlns="http://www.w3.org/2000/svg" xmlns:xlink="http://www.w3.org/1999/xlink" x="0px" y="0px" viewBox="0 0 1023 498.3"
	 xml:space="preserve">
<title>logo_1000_советов</title>
<path id="_Path_" fill="#FFFFFF" d="M65.6,388.2c18,0,32.3,6.9,42.7,20.8l12.1-7.5c-3.3-5.7-7.7-10.6-12.9-14.7
	c-5.6-4.1-11.9-7.3-18.5-9.3c-7.3-2.4-15-3.6-22.7-3.7c-11.8-0.2-23.4,2.7-33.8,8.3c-9.9,5.3-18.1,13.3-23.8,23
	C3,414.7,0,425.8,0,437c0,17,6.2,31.5,18.5,43.4s27.8,17.8,46.6,17.8c12.2,0,23-2.3,32.6-7c9.2-4.4,17.1-11.3,22.8-19.8l-12.1-7.9
	c-11,13.9-25.2,20.8-42.6,20.8c-9,0.1-17.8-2-25.7-6.3c-7.5-4.1-13.8-10.2-18-17.7c-4.3-7.4-6.6-15.8-6.6-24.3
	c-0.2-12.8,5-25,14.3-33.8C39.3,392.8,51.2,388.2,65.6,388.2z"/>
<path id="_Compound_Path_" fill="#FFFFFF" d="M231.3,373.8c-18.3,0-33.5,6.6-45.4,19.9c-10.7,11.6-16.6,26.9-16.3,42.6
	c0,16.5,5.8,31,17.3,43.3c11.5,12.4,26.3,18.6,44.5,18.6c18.1,0,32.9-6.2,44.4-18.5c11.5-12.4,17.3-26.8,17.3-43.3
	c0.2-15.8-5.6-31.1-16.3-42.7C264.6,380.4,249.5,373.8,231.3,373.8z M271.3,460.6c-3.9,7.2-9.7,13.1-16.8,17.1
	c-14.5,8.1-32,8.1-46.5,0c-7.1-4-12.9-10-16.8-17.1c-4.1-7.3-6.3-15.5-6.2-23.9c-0.2-12.7,4.7-24.9,13.6-33.9c9.1-9.3,20-14,32.6-14
	s23.5,4.7,32.6,14c9,9,13.9,21.2,13.7,33.9C277.5,445.1,275.4,453.3,271.3,460.6L271.3,460.6z"/>
<path id="_Compound_Path_2" fill="#FFFFFF" d="M406,431.1c10.6-4.3,15.9-12.4,15.9-24.4c0.1-7.8-3-15.3-8.5-20.8
	c-5.7-5.9-15-8.9-27.9-8.9h-33.8v118.3H386c28.7,0,43.1-10.9,43.1-32.7C429.1,447,421.4,436.5,406,431.1z M366.9,390.1h9.9
	c8.7,0,14.5,0.3,17.3,0.9c2.8,0.6,5.5,2.5,8,5.9c2.6,3.6,4,7.9,3.8,12.4c0,4.7-1.2,8.5-3.7,11.3c-2,2.6-4.7,4.4-7.8,5.4
	c-2.8,0.7-8.7,1.1-17.7,1.1h-9.9L366.9,390.1L366.9,390.1z M408.3,474.6c-2,3-5,5.3-8.5,6.4c-3.3,1-8.8,1.5-16.5,1.5h-16.3V441h22.7
	c6.7,0,12,1.9,16.1,5.8c4.1,3.8,6.1,9,6.1,15.4C411.8,467.2,410.6,471.3,408.3,474.6z"/>
<path id="_Compound_Path_3" fill="#FFFFFF" d="M589.4,396.8c-12-15.3-28.2-23-48.3-23c-19.6,0-35.2,7.5-46.9,22.4
	c-9.1,11.4-14,25.6-13.9,40.2c0,16,5.4,30.3,16.3,42.9c10.9,12.7,26,19,45.3,19c8,0.1,15.9-1.2,23.4-4c6.9-2.6,13.2-6.6,18.6-11.6
	c6-5.7,11-12.5,14.6-20l-12.8-6.7c-4.7,7.7-9,13.3-13,16.8c-4.3,3.6-9.2,6.5-14.5,8.3c-5.6,2.1-11.6,3.1-17.6,3.1
	c-12.5,0-23-4.4-31.5-13.2c-8.5-8.8-12.9-20.1-13.2-33.8h106.5C602.3,421.1,598,407.6,589.4,396.8z M497.5,424.1
	c3.1-10.9,7.7-19,13.8-24.5c8.2-7.4,18.9-11.4,29.9-11.2c7,0,13.8,1.5,20.1,4.5c6,2.7,11.3,6.7,15.4,11.7c3.9,4.9,6.8,11.3,8.9,19.5
	L497.5,424.1L497.5,424.1z"/>
<polygon id="_Path_2" fill="#FFFFFF" points="642.9,390 674.2,390 674.2,495.2 689.4,495.2 689.4,390 720.8,390 720.8,376.9 
	642.9,376.9 "/>
<path id="_Compound_Path_4" fill="#FFFFFF" d="M822.5,373.8c-18.3,0-33.5,6.6-45.4,19.9c-10.7,11.6-16.6,26.9-16.3,42.6
	c0,16.5,5.8,31,17.3,43.3c11.5,12.4,26.3,18.5,44.5,18.5c18.1,0,32.9-6.2,44.4-18.5c11.5-12.4,17.3-26.8,17.3-43.3
	c0.2-15.8-5.6-31.1-16.3-42.7C855.9,380.4,840.8,373.8,822.5,373.8z M862.5,460.6c-3.9,7.2-9.7,13.1-16.8,17.1
	c-14.5,8.1-32,8.1-46.5,0c-7.1-4-12.9-10-16.8-17.1c-4.1-7.3-6.3-15.5-6.2-23.9c-0.2-12.7,4.7-24.9,13.6-33.9c9.1-9.3,20-14,32.6-14
	s23.5,4.7,32.6,14c9,9,13.9,21.2,13.7,33.9C868.8,445.1,866.7,453.3,862.5,460.6L862.5,460.6z"/>
<path id="_Compound_Path_5" fill="#FFFFFF" d="M997.3,431.1c10.6-4.3,15.9-12.4,15.9-24.4c0.1-7.8-3-15.3-8.5-20.8
	c-5.7-5.9-15-8.9-27.9-8.9H943v118.3h34.4c28.7,0,43.1-10.9,43.1-32.7C1020.4,447,1012.7,436.5,997.3,431.1z M958.2,390.1h9.9
	c8.7,0,14.5,0.3,17.3,0.9c2.8,0.6,5.5,2.5,8,5.9c2.6,3.6,4,7.9,3.8,12.4c0,4.7-1.2,8.5-3.7,11.3c-2,2.6-4.7,4.4-7.8,5.4
	c-2.8,0.7-8.7,1.1-17.7,1.1h-9.9L958.2,390.1L958.2,390.1z M999.6,474.6c-2,3-5,5.3-8.5,6.4c-3.3,1-8.8,1.5-16.5,1.5h-16.3V441h22.7
	c6.7,0,12,1.9,16.1,5.8c4.1,3.8,6.1,9,6.1,15.4C1003.1,467.2,1001.9,471.3,999.6,474.6L999.6,474.6z"/>
<polygon id="_Path_3" fill="#FFFFFF" points="36.2,155.8 88.5,119.4 88.5,311.6 150.6,311.6 150.6,0.2 0.7,104.8 "/>
<path id="_Path_4" fill="#FFFFFF" d="M867.2,311.6c86.1,0,155.8-69.7,155.8-155.8C1023.1,69.8,953.3,0,867.3,0
	c-27.4,0-54.4,7.2-78.1,21c12.9,16.4,23.5,34.6,31.2,54c14.2-8.3,30.4-12.7,46.8-12.7c51.6,0,93.5,41.9,93.5,93.5
	s-41.9,93.5-93.5,93.5c-51.6-0.1-93.4-41.9-93.5-93.5c0-86-69.6-155.8-155.7-155.8c-27.5,0-54.5,7.2-78.2,21
	c13,16.4,23.5,34.6,31.2,54c28.9-16.9,64.7-16.9,93.6,0c28.9,16.7,46.7,47.5,46.7,80.8C711.4,241.9,781.2,311.6,867.2,311.6z"/>
<path id="_Path_5" fill="#FFFFFF" d="M664.7,236.6c-28.9,16.9-64.7,16.9-93.6,0c-28.9-16.7-46.6-47.5-46.7-80.8
	C524.5,69.8,454.7,0,368.6,0c-86.1,0-155.9,69.7-155.9,155.8c0,86.1,69.7,155.9,155.8,155.9c27.4,0,54.4-7.2,78.1-21
	c-12.9-16.4-23.5-34.6-31.2-54c-14.2,8.3-30.4,12.7-46.8,12.7c-51.6,0-93.5-41.9-93.5-93.5s41.9-93.5,93.5-93.5
	c16.5,0,32.6,4.3,46.8,12.7c28.9,16.7,46.7,47.5,46.7,80.9c0,86.1,69.8,155.8,155.9,155.8c27.4,0,54.3-7.2,78.1-21
	C683.1,274.3,672.5,256.1,664.7,236.6z"/>
<circle id="_Path_6" fill="#FFFFFF" cx="617.9" cy="155.8" r="31.2"/>
</svg>
